<svg xmlns="http://www.w3.org/2000/svg" version="1.1" xmlns:xlink="http://www.w3.org/1999/xlink" width="1500" height="128" viewBox="0 0 1500 128"><svg xml:space="preserve" width="1500" height="128" data-version="2" data-id="lg_tZTHCTYZ6x2t90fudL" viewBox="0 0 629 128" x="0" y="0"><rect width="100%" height="100%" fill="transparent"></rect><g transform="translate(21.64 19.32)"><linearGradient id="a" x1="-.36" x2="18.82" y1="0" y2="0" gradientUnits="objectBoundingBox"><stop offset="0%" stop-color="#6ee2f5"></stop><stop offset="100%" stop-color="#6454f0"></stop></linearGradient><path fill="url(#a)" d="M123 392.68q0-1.14-.7-1.29-.2-.05-.55-.05h-1.54l-11.66-28.54h-3.08l-10.96 28.54h-3.19v1.34h9.07q0-1.14-.7-1.29-.25-.05-.55-.05H96.5l3.64-9.57h10.06l3.73 9.57h-3.43v1.34Zm-13.4-12.4h-8.91l4.43-11.65Z" transform="translate(-107.16 -377.74)"></path></g><rect width="31.68" height="29.88" x="-15.84" y="-14.94" fill="none" rx="0" ry="0" transform="translate(22.14 19.82)"></rect><g transform="translate(48.24 23.4)"><linearGradient id="b" x1="-2.1" x2="27.98" y1="0" y2="0" gradientUnits="objectBoundingBox"><stop offset="0%" stop-color="#6ee2f5"></stop><stop offset="100%" stop-color="#6454f0"></stop></linearGradient><path fill="url(#b)" d="M136.5 391.39h-3.64v-10.81q.35-4.78 2.69-6.43.55-.34.95-.34.64 0 1.29 1.14.85 1.59 1.79 1.89.45.15.95.15 1.79 0 2.54-1.74.25-.55.25-1.15 0-2.39-2.34-2.98-.6-.15-1.2-.15-3.04 0-5.43 2.49-1.04 1.14-1.64 2.59l-.3-4.69h-8.22v1.25h3.14v16.09q0 2.14-1.49 2.54-.65.15-1.65.15v1.29h13.5q0-1.14-.75-1.24-.2-.05-.44-.05" transform="translate(-133.75 -381.82)"></path></g><rect width="19.13" height="21.71" x="-9.56" y="-10.86" fill="none" rx="0" ry="0" transform="translate(48.74 23.9)"></rect><g transform="translate(69.9 23.5)"><linearGradient id="c" x1="-2.85" x2="24.8" y1="0" y2="0" gradientUnits="objectBoundingBox"><stop offset="0%" stop-color="#6ee2f5"></stop><stop offset="100%" stop-color="#6454f0"></stop></linearGradient><path fill="url(#c)" d="M145.21 382.07q0 6.83 5.13 9.66 2.64 1.45 6.08 1.45 5.18 0 7.92-3.29.84-.99 1.29-2.19l-1.29-.35q-1.55 3.29-5.18 4.14-.95.24-2 .24-5.87-.09-5.92-9.66 0-9.11 4.03-10.06.6-.1 1.15-.1 2.34 0 2.89 2.04.1.45.2 1.35.34 2.19 1.19 2.79.65.4 1.64.45 2.25 0 2.79-1.75.1-.4.1-.74 0-2.24-2.74-3.89-2.54-1.49-6.07-1.49-5.58 0-8.72 3.88-2.49 3.04-2.49 7.52" transform="translate(-155.42 -381.93)"></path></g><rect width="20.42" height="22.51" x="-10.21" y="-11.26" fill="none" rx="0" ry="0" transform="translate(70.4 24)"></rect><g transform="translate(94.56 18.08)"><linearGradient id="d" x1="-3.06" x2="18.66" y1="0" y2="0" gradientUnits="objectBoundingBox"><stop offset="0%" stop-color="#6ee2f5"></stop><stop offset="100%" stop-color="#6454f0"></stop></linearGradient><path fill="url(#d)" d="M177.39 391.39h-1.65v-11.56q0-4.43 2.84-6.07 1-.55 1.99-.55 2.89 0 3.69 3.09.2.84.2 1.89v10.51q0 2.04-.75 2.44-.55.25-1.69.25v1.29h11.05q0-1.09-.64-1.24-.3-.05-.6-.05h-1.89v-12.6q0-5.93-4.04-7.62-1.24-.5-2.69-.5-4.03 0-6.42 2.99-.65.89-1.05 1.84v-15.19h-8.66v1.29h3.18v27.1q0 2.24-1.74 2.59-.6.1-1.44.1v1.29h11.55q0-1.09-.65-1.24-.3-.05-.59-.05" transform="translate(-180.07 -376.5)"></path></g><rect width="25.99" height="32.37" x="-12.99" y="-16.18" fill="none" rx="0" ry="0" transform="translate(95.06 18.58)"></rect><g transform="translate(121.18 23.5)"><linearGradient id="e" x1="-4.69" x2="20.56" y1="0" y2="0" gradientUnits="objectBoundingBox"><stop offset="0%" stop-color="#6ee2f5"></stop><stop offset="100%" stop-color="#6454f0"></stop></linearGradient><path fill="url(#e)" d="M213.39 393.18q3.54 0 4.39-2.79.25-1 .35-2.39l-1.3-.05q-.3 3.49-1.79 3.54-1.15-.1-1.15-2.49v-10.46q0-6.43-6.07-7.62-1.25-.25-2.64-.25-6.28 0-8.12 2.79-.55.79-.55 1.69 0 1.69 1.59 2.19.45.15.9.15 1.79 0 2.49-1.84.1-.25.3-.85.6-2.04 1.54-2.54.65-.3 1.45-.3 2.99 0 3.48 3.54.1.8.1 1.74v3.19q-13.05.2-13.1 6.82 0 4.29 3.74 5.53 1.2.4 2.59.4 3.93 0 6.13-2.79.59-.85.94-1.74.8 4.48 4.73 4.53m-9.51-2.09q-2.79 0-2.99-3.99v-.5q0-3.38 3.39-4.28 1.59-.45 4.08-.5v4.54q-.84 3.38-3.18 4.43-.7.3-1.3.3" transform="translate(-206.7 -381.93)"></path></g><rect width="22.87" height="22.51" x="-11.44" y="-11.26" fill="none" rx="0" ry="0" transform="translate(121.68 24)"></rect><g transform="translate(147.03 23.26)"><linearGradient id="f" x1="-4.93" x2="16.83" y1="0" y2="0" gradientUnits="objectBoundingBox"><stop offset="0%" stop-color="#6ee2f5"></stop><stop offset="100%" stop-color="#6454f0"></stop></linearGradient><path fill="url(#f)" d="M229.73 391.39h-1.54l.05-12.31q.34-3.98 2.98-5.47.95-.5 1.9-.5 2.79 0 3.53 2.94.25.89.25 1.99v10.66q0 2.09-1.14 2.49-.55.2-1.6.2v1.29h11.41q0-1.09-.65-1.24-.3-.05-.6-.05h-1.94v-12.6q0-5.88-4.08-7.57-1.3-.55-2.79-.55-3.59 0-6.08 2.84-.8.94-1.29 1.99l-.25-4.14h-8.37v1.25h3.19v16.09q0 2.19-1.65 2.54-.64.15-1.54.15v1.29h11.45q0-1.09-.64-1.24-.3-.05-.6-.05" transform="translate(-232.54 -381.68)"></path></g><rect width="26.05" height="22.01" x="-13.03" y="-11.01" fill="none" rx="0" ry="0" transform="translate(147.53 23.76)"></rect><g transform="translate(173.63 23.5)"><linearGradient id="g" x1="-6.84" x2="18.41" y1="0" y2="0" gradientUnits="objectBoundingBox"><stop offset="0%" stop-color="#6ee2f5"></stop><stop offset="100%" stop-color="#6454f0"></stop></linearGradient><path fill="url(#g)" d="M265.84 393.18q3.53 0 4.38-2.79.25-1 .35-2.39l-1.3-.05q-.29 3.49-1.79 3.54-1.14-.1-1.14-2.49v-10.46q0-6.43-6.08-7.62-1.25-.25-2.64-.25-6.28 0-8.12 2.79-.55.79-.55 1.69 0 1.69 1.6 2.19.45.15.89.15 1.8 0 2.49-1.84.1-.25.3-.85.6-2.04 1.55-2.54.65-.3 1.44-.3 2.99 0 3.49 3.54.1.8.1 1.74v3.19q-13.05.2-13.1 6.82 0 4.29 3.73 5.53 1.2.4 2.59.4 3.94 0 6.13-2.79.6-.85.95-1.74.79 4.48 4.73 4.53m-9.51-2.09q-2.79 0-2.99-3.99v-.5q0-3.38 3.38-4.28 1.6-.45 4.09-.5v4.54q-.85 3.38-3.19 4.43-.7.3-1.29.3" transform="translate(-259.14 -381.93)"></path></g><rect width="22.86" height="22.51" x="-11.43" y="-11.26" fill="none" rx="0" ry="0" transform="translate(174.13 24)"></rect><g transform="translate(210.93 19.35)"><linearGradient id="h" x1="-6.57" x2="13.37" y1="0" y2="0" gradientUnits="objectBoundingBox"><stop offset="0%" stop-color="#6ee2f5"></stop><stop offset="100%" stop-color="#6454f0"></stop></linearGradient><path fill="url(#h)" d="M295.92 392.68v-1.34h-3.98v-12.31h3.18l7.57 13.7 8.37-.05q0-1.09-.65-1.24-.3-.05-.59-.05h-1.05l-7.82-12.9q5.08-1.35 6.48-5.38.39-1.25.39-2.49 0-3.74-3.28-5.98-2.74-1.84-6.68-1.84h-16.03v1.34h3.98v27.2h-3.98v1.34Zm-.55-28.54q4.04 0 5.43 3.74.5 1.34.5 2.89 0 3.98-2.54 5.82-1.35.95-3.09.95h-3.73v-13.4Z" transform="translate(-296.44 -377.76)"></path></g><rect width="29.23" height="29.93" x="-14.62" y="-14.96" fill="none" rx="0" ry="0" transform="translate(211.43 19.85)"></rect><g transform="translate(238.22 23.5)"><linearGradient id="i" x1="-9.49" x2="15.76" y1="0" y2="0" gradientUnits="objectBoundingBox"><stop offset="0%" stop-color="#6ee2f5"></stop><stop offset="100%" stop-color="#6454f0"></stop></linearGradient><path fill="url(#i)" d="M330.43 393.18q3.54 0 4.39-2.79.25-1 .35-2.39l-1.3-.05q-.3 3.49-1.79 3.54-1.15-.1-1.15-2.49v-10.46q0-6.43-6.07-7.62-1.25-.25-2.64-.25-6.28 0-8.12 2.79-.55.79-.55 1.69 0 1.69 1.59 2.19.45.15.9.15 1.79 0 2.49-1.84.1-.25.3-.85.6-2.04 1.54-2.54.65-.3 1.45-.3 2.99 0 3.48 3.54.1.8.1 1.74v3.19q-13.04.2-13.09 6.82 0 4.29 3.73 5.53 1.2.4 2.59.4 3.94 0 6.13-2.79.59-.85.94-1.74.8 4.48 4.73 4.53m-9.51-2.09q-2.79 0-2.99-3.99v-.5q0-3.38 3.39-4.28 1.59-.45 4.08-.5v4.54q-.84 3.38-3.18 4.43-.7.3-1.3.3" transform="translate(-323.74 -381.93)"></path></g><rect width="22.86" height="22.51" x="-11.43" y="-11.26" fill="none" rx="0" ry="0" transform="translate(238.72 24)"></rect><g transform="translate(270.2 23.26)"><linearGradient id="j" x1="-6.33" x2="8.5" y1="0" y2="0" gradientUnits="objectBoundingBox"><stop offset="0%" stop-color="#6ee2f5"></stop><stop offset="100%" stop-color="#6454f0"></stop></linearGradient><path fill="url(#j)" d="M346.57 391.39h-1.34l.05-12.31q.35-4.08 2.89-5.52.79-.45 1.59-.45 2.04 0 2.89 2.44.35 1.09.35 2.49v10.66q0 2.04-.95 2.44-.55.25-1.64.25v1.29h10.6q0-1.09-.64-1.24-.3-.05-.6-.05h-1.3v-13.25q.55-3.69 2.94-4.83.65-.3 1.3-.3 2.29 0 3.19 2.54.34 1.14.34 2.49v10.66q0 2.04-.94 2.44-.55.25-1.65.25v1.29h11.21q0-1.09-.65-1.24-.3-.05-.59-.05h-1.9v-12.8q0-4.93-3.28-6.98-1.5-.94-3.24-.94-4.68 0-7.02 4.53-.1.2-.15.35-1.1-3.69-4.19-4.63-.79-.25-1.64-.25-4.38 0-6.62 3.88l-.4.8-.25-3.99h-8.37v1.25h3.19v16.09q0 2.19-1.65 2.54-.64.15-1.54.15v1.29h11.21q0-1.14-.75-1.24-.2-.05-.45-.05" transform="translate(-355.71 -381.68)"></path></g><rect width="38.3" height="22.01" x="-19.15" y="-11.01" fill="none" rx="0" ry="0" transform="translate(270.7 23.76)"></rect><g transform="translate(307.07 19.35)"><linearGradient id="k" x1="-9.17" x2="9.64" y1="0" y2="0" gradientUnits="objectBoundingBox"><stop offset="0%" stop-color="#6ee2f5"></stop><stop offset="100%" stop-color="#6454f0"></stop></linearGradient><path fill="url(#k)" d="M391.2 392.68q-.3-1.24-1.35-1.34h-2.64v-11.86l1.94-1.74 10.21 14.99 8.72-.05q-.3-1.24-1.34-1.34h-.75l-12.45-17.63 8.02-7.33q2.04-1.94 3.08-2.14.4-.1.75-.1 1.25-.4 1.35-1.34h-9.17v1.34h3.99l-14.35 13.05v-13.05h3.99v-1.34h-14.1v1.34h3.99v27.2h-3.99v1.34Z" transform="translate(-392.59 -377.76)"></path></g><rect width="30.98" height="29.93" x="-15.49" y="-14.96" fill="none" rx="0" ry="0" transform="translate(307.57 19.85)"></rect><g transform="translate(329.89 18.5)"><linearGradient id="l" x1="-22.65" x2="20.46" y1="0" y2="0" gradientUnits="objectBoundingBox"><stop offset="0%" stop-color="#6ee2f5"></stop><stop offset="100%" stop-color="#6454f0"></stop></linearGradient><path fill="url(#l)" d="M420.18 391.39h-2.04v-20.03h-8.71v1.25h3.23v16.09q0 2.14-1.64 2.54-.6.15-1.59.15v1.29h11.95q0-1.14-.75-1.24-.2-.05-.45-.05m-1.54-26.8q0-2.04-1.84-3.04-.75-.4-1.55-.4-2.04 0-2.99 1.85-.39.79-.39 1.59 0 2.09 1.84 2.99.75.35 1.54.35 2.04 0 2.99-1.75.4-.74.4-1.59" transform="translate(-415.4 -376.92)"></path></g><rect width="11.95" height="31.53" x="-5.97" y="-15.77" fill="none" rx="0" ry="0" transform="translate(330.39 19)"></rect><g transform="translate(347.6 23.36)"><linearGradient id="m" x1="-16.66" x2="13.42" y1="0" y2="0" gradientUnits="objectBoundingBox"><stop offset="0%" stop-color="#6ee2f5"></stop><stop offset="100%" stop-color="#6454f0"></stop></linearGradient><path fill="url(#m)" d="M432.24 391.78q3.33 0 4.13-2.24.15-.49.15-.99 0-2.39-3.14-4.04-.7-.35-2.19-.99-3.84-1.7-5.13-3.09-1.34-1.59-1.34-3.69 0-3.93 4.28-5.43 1.89-.64 4.23-.64 3.64 0 5.98 1.39 0-1.49.8-1.64.24-.05.49-.05v6.22h-1.49q-.2-4.53-4.98-4.58-3.34 0-4.14 2.09-.19.55-.19 1.1 0 2.09 2.98 3.64l2.1.94q3.93 1.69 5.23 3.14 1.49 1.69 1.49 3.98 0 4.24-4.38 5.68-1.8.6-3.99.6-4.18 0-7.02-1.64 0 1.29-.65 1.49-.3.05-.7.05v-7.57h1.6q.1 6.22 5.88 6.27" transform="translate(-433.11 -381.77)"></path></g><rect width="16.78" height="22.81" x="-8.39" y="-11.4" fill="none" rx="0" ry="0" transform="translate(348.1 23.86)"></rect><g transform="translate(371.82 18.08)"><linearGradient id="n" x1="-12.91" x2="8.81" y1="0" y2="0" gradientUnits="objectBoundingBox"><stop offset="0%" stop-color="#6ee2f5"></stop><stop offset="100%" stop-color="#6454f0"></stop></linearGradient><path fill="url(#n)" d="M454.65 391.39H453v-11.56q0-4.43 2.84-6.07 1-.55 2-.55 2.88 0 3.68 3.09.2.84.2 1.89v10.51q0 2.04-.75 2.44-.54.25-1.69.25v1.29h11.06q0-1.09-.65-1.24-.3-.05-.6-.05h-1.89v-12.6q0-5.93-4.04-7.62-1.24-.5-2.69-.5-4.03 0-6.42 2.99-.65.89-1.05 1.84v-15.19h-8.66v1.29h3.19v27.1q0 2.24-1.75 2.59-.6.1-1.44.1v1.29h11.55q0-1.09-.64-1.24-.3-.05-.6-.05" transform="translate(-457.34 -376.5)"></path></g><rect width="26" height="32.37" x="-13" y="-16.18" fill="none" rx="0" ry="0" transform="translate(372.32 18.58)"></rect><g transform="translate(398.67 23.5)"><linearGradient id="o" x1="-15.17" x2="8.61" y1="0" y2="0" gradientUnits="objectBoundingBox"><stop offset="0%" stop-color="#6ee2f5"></stop><stop offset="100%" stop-color="#6454f0"></stop></linearGradient><path fill="url(#o)" d="M478.95 381.92q0-7.57 2.69-9.31 1.1-.65 2.54-.65 3.79 0 4.78 4.29.5 2.09.5 5.47 0 8.02-3.04 9.67-.99.49-2.24.49-3.73 0-4.73-4.28-.5-2.14-.5-5.68m5.43-11.25q-5.68 0-8.96 3.88-2.49 2.99-2.49 7.17 0 5.78 4.08 9.07 2.99 2.39 7.02 2.39 5.53 0 8.82-3.99 2.59-3.13 2.59-7.47 0-5.82-4.19-8.91-2.88-2.14-6.87-2.14" transform="translate(-484.19 -381.93)"></path></g><rect width="22.51" height="22.51" x="-11.26" y="-11.26" fill="none" rx="0" ry="0" transform="translate(399.17 24)"></rect><g transform="translate(422.32 23.4)"><linearGradient id="p" x1="-20.28" x2="9.8" y1="0" y2="0" gradientUnits="objectBoundingBox"><stop offset="0%" stop-color="#6ee2f5"></stop><stop offset="100%" stop-color="#6454f0"></stop></linearGradient><path fill="url(#p)" d="M510.58 391.39h-3.64v-10.81q.35-4.78 2.69-6.43.55-.34.95-.34.65 0 1.29 1.14.85 1.59 1.8 1.89.44.15.94.15 1.8 0 2.54-1.74.25-.55.25-1.15 0-2.39-2.34-2.98-.6-.15-1.19-.15-3.04 0-5.43 2.49-1.05 1.14-1.65 2.59l-.3-4.69h-8.21v1.25h3.13v16.09q0 2.14-1.49 2.54-.65.15-1.64.15v1.29h13.49q0-1.14-.74-1.24-.2-.05-.45-.05" transform="translate(-507.84 -381.82)"></path></g><rect width="19.12" height="21.71" x="-9.56" y="-10.86" fill="none" rx="0" ry="0" transform="translate(422.82 23.9)"></rect><g transform="translate(439.46 18.5)"><linearGradient id="q" x1="-30.21" x2="12.9" y1="0" y2="0" gradientUnits="objectBoundingBox"><stop offset="0%" stop-color="#6ee2f5"></stop><stop offset="100%" stop-color="#6454f0"></stop></linearGradient><path fill="url(#q)" d="M529.75 391.39h-2.04v-20.03H519v1.25h3.23v16.09q0 2.14-1.64 2.54-.6.15-1.59.15v1.29h11.95q0-1.14-.75-1.24-.2-.05-.45-.05m-1.54-26.8q0-2.04-1.84-3.04-.75-.4-1.55-.4-2.04 0-2.99 1.85-.39.79-.39 1.59 0 2.09 1.84 2.99.75.35 1.54.35 2.04 0 2.99-1.75.4-.74.4-1.59" transform="translate(-524.98 -376.92)"></path></g><rect width="11.95" height="31.53" x="-5.97" y="-15.77" fill="none" rx="0" ry="0" transform="translate(439.96 19)"></rect><g transform="translate(477.88 19.37)"><linearGradient id="r" x1="-10.63" x2="3.08" y1="0" y2="0" gradientUnits="objectBoundingBox"><stop offset="0%" stop-color="#6ee2f5"></stop><stop offset="100%" stop-color="#6454f0"></stop></linearGradient><path fill="url(#r)" d="m573.23 392.68 9.61-28.54h2.5v-1.34h-8.17v1.34h3.98l-7.27 21.97-7.82-22.02 3.99.05v-1.34h-10.56l3.63 9.71-4.98 13.9-8.02-22.27h3.99v-1.34h-12.65v1.34h2.64l9.41 24.96q1.1 2.98 1.99 3.43.45.25 1.15.25h.79l6.53-17.98 5.38 14.3q1.09 2.88 1.84 3.33.4.25 1.2.25Z" transform="translate(-563.4 -377.79)"></path></g><rect width="43.88" height="29.98" x="-21.94" y="-14.99" fill="none" rx="0" ry="0" transform="translate(478.38 19.87)"></rect><g transform="translate(511.73 23.5)"><linearGradient id="s" x1="-21.5" x2="4.69" y1="0" y2="0" gradientUnits="objectBoundingBox"><stop offset="0%" stop-color="#6ee2f5"></stop><stop offset="100%" stop-color="#6454f0"></stop></linearGradient><path fill="url(#s)" d="M597.89 371.96q3.08 0 3.68 3.64.15.79.15 1.64 0 2.34-1.69 2.94-1.1.3-3.19.25l-3.83-.15q.19-7.07 3.73-8.17.6-.15 1.15-.15m9.11 15.69-1.2-.4q-1.44 3.14-4.58 4.14-1.04.34-2.14.34-5.83 0-6.07-9.91v-.1l5.03.1q7.47.15 8.96-2.14.5-.79.5-1.89 0-3.94-3.99-5.93-2.49-1.19-5.62-1.19-5.73 0-8.77 4.13-2.14 2.94-2.14 7.12 0 6.83 5.03 9.76 2.69 1.5 6.03 1.5 5.67 0 8.21-4.04.45-.74.75-1.49" transform="translate(-597.24 -381.93)"></path></g><rect width="20.52" height="22.51" x="-10.26" y="-11.26" fill="none" rx="0" ry="0" transform="translate(512.23 24)"></rect><g transform="translate(530.92 18.08)"><linearGradient id="t" x1="-34.82" x2="6.26" y1="0" y2="0" gradientUnits="objectBoundingBox"><stop offset="0%" stop-color="#6ee2f5"></stop><stop offset="100%" stop-color="#6454f0"></stop></linearGradient><path fill="url(#t)" d="M621.74 391.39h-2.54v-31.08h-9.31v1.29h3.83v27q0 2.14-1.49 2.59-.75.2-2.34.2v1.29h13.1q0-1.09-.65-1.24-.3-.05-.6-.05" transform="translate(-616.44 -376.5)"></path></g><rect width="13.1" height="32.37" x="-6.55" y="-16.18" fill="none" rx="0" ry="0" transform="translate(531.42 18.58)"></rect><g transform="translate(549.8 17.95)"><linearGradient id="u" x1="-32.81" x2="4.74" y1="0" y2="0" gradientUnits="objectBoundingBox"><stop offset="0%" stop-color="#6ee2f5"></stop><stop offset="100%" stop-color="#6454f0"></stop></linearGradient><path fill="url(#u)" d="M638.18 391.39h-3.54v-18.73h5.68v-1.3h-5.68v-.29q0-7.77 1.55-9.22.64-.5 1.49-.5 1.29 0 2.19 1.9 1 2.09 1.4 2.49.64.69 1.54.69 1.94 0 2.44-1.54.1-.35.1-.7 0-2.09-2.54-3.33-1.74-.8-4.13-.8-5.58 0-8.02 4.23-1.5 2.59-1.5 6.38v.69h-3.88v1.3h3.88v16.04q0 2.24-2.24 2.59-.65.1-1.54.1v1.29h13.99q0-1.14-.74-1.24-.2-.05-.45-.05" transform="translate(-635.32 -376.37)"></path></g><rect width="20.07" height="32.62" x="-10.04" y="-16.31" fill="none" rx="0" ry="0" transform="translate(550.3 18.45)"></rect><g transform="translate(567.77 23.5)"><linearGradient id="v" x1="-23.02" x2="2.22" y1="0" y2="0" gradientUnits="objectBoundingBox"><stop offset="0%" stop-color="#6ee2f5"></stop><stop offset="100%" stop-color="#6454f0"></stop></linearGradient><path fill="url(#v)" d="M659.99 393.18q3.54 0 4.39-2.79.24-1 .34-2.39l-1.29-.05q-.3 3.49-1.79 3.54-1.15-.1-1.15-2.49v-10.46q0-6.43-6.08-7.62-1.24-.25-2.64-.25-6.27 0-8.11 2.79-.55.79-.55 1.69 0 1.69 1.59 2.19.45.15.9.15 1.79 0 2.49-1.84.1-.25.3-.85.6-2.04 1.54-2.54.65-.3 1.45-.3 2.98 0 3.48 3.54.1.8.1 1.74v3.19q-13.05.2-13.1 6.82 0 4.29 3.74 5.53 1.19.4 2.59.4 3.93 0 6.12-2.79.6-.85.95-1.74.8 4.48 4.73 4.53m-9.51-2.09q-2.79 0-2.99-3.99v-.5q0-3.38 3.39-4.28 1.59-.45 4.08-.5v4.54q-.84 3.38-3.19 4.43-.69.3-1.29.3" transform="translate(-653.29 -381.93)"></path></g><rect width="22.86" height="22.51" x="-11.43" y="-11.26" fill="none" rx="0" ry="0" transform="translate(568.27 24)"></rect><g transform="translate(590.22 23.4)"><linearGradient id="w" x1="-28.45" x2="1.63" y1="0" y2="0" gradientUnits="objectBoundingBox"><stop offset="0%" stop-color="#6ee2f5"></stop><stop offset="100%" stop-color="#6454f0"></stop></linearGradient><path fill="url(#w)" d="M678.47 391.39h-3.64v-10.81q.35-4.78 2.69-6.43.55-.34.95-.34.65 0 1.29 1.14.85 1.59 1.8 1.89.45.15.94.15 1.8 0 2.54-1.74.25-.55.25-1.15 0-2.39-2.34-2.98-.6-.15-1.19-.15-3.04 0-5.43 2.49-1.05 1.14-1.65 2.59l-.29-4.69h-8.22v1.25h3.14v16.09q0 2.14-1.5 2.54-.65.15-1.64.15v1.29h13.5q0-1.14-.75-1.24-.2-.05-.45-.05" transform="translate(-675.73 -381.82)"></path></g><rect width="19.12" height="21.71" x="-9.56" y="-10.86" fill="none" rx="0" ry="0" transform="translate(590.72 23.9)"></rect><g transform="translate(611.93 23.5)"><linearGradient id="x" x1="-25.77" x2=".43" y1="0" y2="0" gradientUnits="objectBoundingBox"><stop offset="0%" stop-color="#6ee2f5"></stop><stop offset="100%" stop-color="#6454f0"></stop></linearGradient><path fill="url(#x)" d="M698.09 371.96q3.09 0 3.69 3.64.15.79.15 1.64 0 2.34-1.7 2.94-1.09.3-3.18.25l-3.84-.15q.2-7.07 3.74-8.17.6-.15 1.14-.15m9.12 15.69-1.2-.4q-1.44 3.14-4.58 4.14-1.05.34-2.14.34-5.83 0-6.08-9.91v-.1l5.03.1q7.47.15 8.97-2.14.5-.79.5-1.89 0-3.94-3.99-5.93-2.49-1.19-5.63-1.19-5.72 0-8.76 4.13-2.14 2.94-2.14 7.12 0 6.83 5.03 9.76 2.69 1.5 6.02 1.5 5.68 0 8.22-4.04.45-.74.75-1.49" transform="translate(-697.45 -381.93)"></path></g><rect width="20.52" height="22.51" x="-10.26" y="-11.26" fill="none" rx="0" ry="0" transform="translate(612.43 24)"></rect><g transform="translate(198.81 66)"><linearGradient id="y" x1="-7.3" x2="16.15" y1="-1" y2="-1" gradientUnits="objectBoundingBox"><stop offset="0%" stop-color="#6ee2f5"></stop><stop offset="100%" stop-color="#6454f0"></stop></linearGradient><path fill="url(#y)" d="M288.11 439.36v-1.34h-5.93v-13.3H292v-1.5h-9.82v-12.4h6.38q4.18 0 5.73 4.83.05.05.05.1l.94 3.29h1.3l-.2-9.56h-24.31v1.34h3.99v27.2h-3.99v1.34Z" transform="translate(-284.32 -424.42)"></path></g><rect width="24.51" height="29.88" x="-12.26" y="-14.94" fill="none" rx="0" ry="0" transform="translate(199.31 66.5)"></rect><g transform="translate(224.31 70.19)"><linearGradient id="z" x1="-8.41" x2="15.37" y1="-1" y2="-1" gradientUnits="objectBoundingBox"><stop offset="0%" stop-color="#6ee2f5"></stop><stop offset="100%" stop-color="#6454f0"></stop></linearGradient><path fill="url(#z)" d="M304.6 428.6q0-7.57 2.69-9.31 1.09-.65 2.54-.65 3.78 0 4.78 4.29.49 2.09.49 5.47 0 8.02-3.03 9.67-1 .49-2.24.49-3.74 0-4.74-4.28-.49-2.14-.49-5.68m5.42-11.25q-5.67 0-8.96 3.88-2.49 2.99-2.49 7.17 0 5.78 4.08 9.07 2.99 2.39 7.03 2.39 5.52 0 8.81-3.99 2.59-3.13 2.59-7.47 0-5.82-4.18-8.91-2.89-2.14-6.88-2.14" transform="translate(-309.82 -428.6)"></path></g><rect width="22.51" height="22.51" x="-11.26" y="-11.26" fill="none" rx="0" ry="0" transform="translate(224.81 70.69)"></rect><g transform="translate(251.1 70.53)"><linearGradient id="A" x1="-8.65" x2="13.11" y1="-1" y2="-1" gradientUnits="objectBoundingBox"><stop offset="0%" stop-color="#6ee2f5"></stop><stop offset="100%" stop-color="#6454f0"></stop></linearGradient><path fill="url(#A)" d="M348.47 438.07h-1.94v-20.03h-8.47v1.25h2.99l-.05 12q-.25 3.99-2.89 5.58-.99.55-1.99.55-3.28 0-3.78-3.74-.1-.64-.1-1.29v-14.35h-8.67v1.25h3.19v12.3q.05 8.22 7.12 8.27 4.04 0 6.43-3.39.49-.74.84-1.49l.25 4.38h8.27q0-1.14-.65-1.24-.25-.05-.55-.05" transform="translate(-336.62 -428.95)"></path></g><rect width="26.1" height="21.82" x="-13.05" y="-10.91" fill="none" rx="0" ry="0" transform="translate(251.6 71.03)"></rect><g transform="translate(279.47 69.94)"><linearGradient id="B" x1="-9.65" x2="12.11" y1="-1" y2="-1" gradientUnits="objectBoundingBox"><stop offset="0%" stop-color="#6ee2f5"></stop><stop offset="100%" stop-color="#6454f0"></stop></linearGradient><path fill="url(#B)" d="M362.17 438.07h-1.54l.05-12.31q.34-3.98 2.98-5.47.95-.5 1.9-.5 2.79 0 3.53 2.94.25.89.25 1.99v10.66q0 2.09-1.14 2.49-.55.2-1.6.2v1.29h11.41q0-1.09-.65-1.24-.3-.05-.6-.05h-1.94v-12.6q0-5.88-4.08-7.57-1.3-.55-2.79-.55-3.59 0-6.08 2.84-.8.94-1.29 1.99l-.25-4.14h-8.37v1.25h3.19v16.09q0 2.19-1.65 2.54-.64.15-1.54.15v1.29h11.46q0-1.09-.65-1.24-.3-.05-.6-.05" transform="translate(-364.99 -428.36)"></path></g><rect width="26.05" height="22.01" x="-13.03" y="-11.01" fill="none" rx="0" ry="0" transform="translate(279.97 70.44)"></rect><g transform="translate(307.81 65)"><linearGradient id="C" x1="-10.65" x2="11.11" y1="-1" y2="-1" gradientUnits="objectBoundingBox"><stop offset="0%" stop-color="#6ee2f5"></stop><stop offset="100%" stop-color="#6454f0"></stop></linearGradient><path fill="url(#C)" d="M397.73 439.36h8.37q0-1.09-.6-1.24-.25-.05-.65-.05h-2.34v-31.08H392.4v1.29h4.58v11.41q-2.54-2.34-6.22-2.34-4.93 0-7.87 3.98-2.34 3.24-2.34 7.82 0 6.18 4.03 9.12 2.24 1.59 4.98 1.59 4.88 0 7.17-4.48.25-.45.4-.85Zm-11.16-10.81q0-7.17 3.29-9.11 1.05-.6 2.19-.6 3.44 0 4.59 4.53.44 1.85.44 4.24 0 6.97-3.08 9.26-1.1.8-2.44.8-3.69 0-4.69-5.38-.3-1.69-.3-3.74" transform="translate(-393.32 -423.43)"></path></g><rect width="25.55" height="32.87" x="-12.78" y="-16.43" fill="none" rx="0" ry="0" transform="translate(308.31 65.5)"></rect><g transform="translate(334.15 70.19)"><linearGradient id="D" x1="-13.43" x2="11.82" y1="-1" y2="-1" gradientUnits="objectBoundingBox"><stop offset="0%" stop-color="#6ee2f5"></stop><stop offset="100%" stop-color="#6454f0"></stop></linearGradient><path fill="url(#D)" d="M426.37 439.86q3.53 0 4.38-2.79.25-1 .35-2.39l-1.29-.05q-.3 3.49-1.8 3.54-1.14-.1-1.14-2.49v-10.46q0-6.43-6.08-7.62-1.24-.25-2.64-.25-6.27 0-8.12 2.79-.55.79-.55 1.69 0 1.69 1.6 2.19.45.15.9.15 1.79 0 2.49-1.84.09-.25.29-.85.6-2.04 1.55-2.54.65-.3 1.44-.3 2.99 0 3.49 3.54.1.8.1 1.74v3.19q-13.05.2-13.1 6.82 0 4.29 3.74 5.53 1.19.4 2.58.4 3.94 0 6.13-2.79.6-.85.95-1.74.79 4.48 4.73 4.53m-9.51-2.09q-2.79 0-2.99-3.99v-.49q0-3.39 3.38-4.29 1.6-.45 4.09-.5v4.54q-.85 3.38-3.19 4.43-.7.3-1.29.3" transform="translate(-419.67 -428.6)"></path></g><rect width="22.86" height="22.51" x="-11.43" y="-11.26" fill="none" rx="0" ry="0" transform="translate(334.65 70.69)"></rect><g transform="translate(354.82 67.75)"><linearGradient id="E" x1="-20.22" x2="15.56" y1="-1" y2="-1" gradientUnits="objectBoundingBox"><stop offset="0%" stop-color="#6ee2f5"></stop><stop offset="100%" stop-color="#6454f0"></stop></linearGradient><path fill="url(#E)" d="M432.2 419.49h3.43v12.95q.45 7.22 6.73 7.47 3.93 0 5.33-3.14.49-1.09.79-2.64l-1.34-.2q-1.1 4.44-3.54 4.49-2.09 0-2.44-2.84-.05-.5-.05-1v-15.09h6.97v-1.3h-6.97v-5.77l-5.48 1.04v4.73h-3.43Z" transform="translate(-440.34 -426.17)"></path></g><rect width="16.28" height="27.49" x="-8.14" y="-13.74" fill="none" rx="0" ry="0" transform="translate(355.32 68.25)"></rect><g transform="translate(370.54 65.18)"><linearGradient id="F" x1="-25.45" x2="17.66" y1="-1" y2="-1" gradientUnits="objectBoundingBox"><stop offset="0%" stop-color="#6ee2f5"></stop><stop offset="100%" stop-color="#6454f0"></stop></linearGradient><path fill="url(#F)" d="M460.83 438.07h-2.04v-20.03h-8.71v1.25h3.23v16.09q0 2.14-1.64 2.54-.6.15-1.59.15v1.29h11.95q0-1.14-.75-1.24-.2-.05-.45-.05m-1.54-26.8q0-2.04-1.84-3.04-.75-.4-1.55-.4-2.04 0-2.99 1.85-.39.79-.39 1.59 0 2.09 1.84 2.99.75.35 1.54.35 2.04 0 2.99-1.74.4-.75.4-1.6" transform="translate(-456.06 -423.6)"></path></g><rect width="11.95" height="31.53" x="-5.97" y="-15.77" fill="none" rx="0" ry="0" transform="translate(371.04 65.68)"></rect><g transform="translate(390.61 70.19)"><linearGradient id="G" x1="-14.86" x2="8.92" y1="-1" y2="-1" gradientUnits="objectBoundingBox"><stop offset="0%" stop-color="#6ee2f5"></stop><stop offset="100%" stop-color="#6454f0"></stop></linearGradient><path fill="url(#G)" d="M470.89 428.6q0-7.57 2.69-9.31 1.1-.65 2.54-.65 3.79 0 4.78 4.29.5 2.09.5 5.47 0 8.02-3.04 9.67-.99.49-2.24.49-3.73 0-4.73-4.28-.5-2.14-.5-5.68m5.43-11.25q-5.68 0-8.96 3.88-2.49 2.99-2.49 7.17 0 5.78 4.08 9.07 2.99 2.39 7.02 2.39 5.53 0 8.82-3.99 2.59-3.13 2.59-7.47 0-5.82-4.18-8.91-2.89-2.14-6.88-2.14" transform="translate(-476.13 -428.6)"></path></g><rect width="22.51" height="22.51" x="-11.26" y="-11.26" fill="none" rx="0" ry="0" transform="translate(391.11 70.69)"></rect><g transform="translate(417.68 69.94)"><linearGradient id="H" x1="-14.57" x2="7.19" y1="-1" y2="-1" gradientUnits="objectBoundingBox"><stop offset="0%" stop-color="#6ee2f5"></stop><stop offset="100%" stop-color="#6454f0"></stop></linearGradient><path fill="url(#H)" d="M500.38 438.07h-1.55l.05-12.31q.35-3.98 2.99-5.47.95-.5 1.9-.5 2.78 0 3.53 2.94.25.89.25 1.99v10.66q0 2.09-1.15 2.49-.54.2-1.59.2v1.29h11.41q0-1.09-.65-1.24-.3-.05-.6-.05h-1.94v-12.6q0-5.88-4.09-7.57-1.29-.55-2.78-.55-3.59 0-6.08 2.84-.8.94-1.3 1.99l-.24-4.14h-8.37v1.25h3.19v16.09q0 2.19-1.65 2.54-.65.15-1.54.15v1.29h11.45q0-1.09-.64-1.24-.3-.05-.6-.05" transform="translate(-503.2 -428.36)"></path></g><rect width="26.05" height="22.01" x="-13.03" y="-11.01" fill="none" rx="0" ry="0" transform="translate(418.18 70.44)"></rect><g transform="translate(437.77 65.88)"><linearGradient id="I" x1="-35.4" x2="15.36" y1="-1" y2="-1" gradientUnits="objectBoundingBox"><stop offset="0%" stop-color="#6ee2f5"></stop><stop offset="100%" stop-color="#6454f0"></stop></linearGradient><path fill="url(#I)" d="M524.09 430.2q0-5.93 1.69-12.65.85-3.49.85-5.13-.1-3.39-3.29-3.44-3.34.1-3.39 3.49 0 1.54 1.1 5.97 1.44 5.93 1.44 11.76Zm2.44 6.22q0-1.94-1.75-2.84-.74-.39-1.49-.39-1.99 0-2.84 1.79-.35.7-.35 1.44 0 2.04 1.79 2.89.7.3 1.4.3 1.94 0 2.84-1.69.4-.7.4-1.5" transform="translate(-523.29 -424.3)"></path></g><rect width="6.68" height="30.63" x="-3.34" y="-15.31" fill="none" rx="0" ry="0" transform="translate(438.27 66.38)"></rect><g transform="translate(127.72 108.8)"><linearGradient id="J" x1="-1.17" x2="26.65" y1="0" y2="0" gradientUnits="objectBoundingBox"><stop offset="0%" stop-color="#0f3054"></stop><stop offset="49.8%" stop-color="#3b8dcb"></stop><stop offset="100%" stop-color="#0f3054"></stop></linearGradient><path fill="url(#J)" d="M218.71 473.18q0 .98.29 1.12.16.07.44.07v-4.43h-.56q-1.2 3.87-4.78 3.89-3.05 0-4.15-3.07-.54-1.5-.54-3.54 0-4.38 2.41-5.95 1.06-.66 2.35-.66 2.93 0 4.24 2.77.23.49.4 1.01h.56l-.07-4.32q-.52 0-.63.33-.07.28-.07.92-.68-.68-2.32-1.1-1.08-.26-2.21-.26-3.7 0-5.67 2.74-1.36 1.95-1.36 4.48 0 3.07 1.9 5.15 2.02 2.16 5.25 2.16 2.37-.02 4.52-1.31" transform="translate(-213.24 -467.23)"></path></g><rect width="12.4" height="14.53" x="-6.2" y="-7.26" fill="none" rx="0" ry="0" transform="translate(128.22 109.3)"></rect><g transform="translate(140.99 110.86)"><linearGradient id="K" x1="-2.64" x2="31.41" y1="0" y2="0" gradientUnits="objectBoundingBox"><stop offset="0%" stop-color="#0f3054"></stop><stop offset="49.8%" stop-color="#3b8dcb"></stop><stop offset="100%" stop-color="#0f3054"></stop></linearGradient><path fill="url(#K)" d="M223.42 469.26q0-3.63 2-4.43.51-.18 1.08-.18 2.6 0 3.02 3.28.07.56.07 1.24 0 3.94-2.16 4.62-.42.11-.86.11-2.37 0-2.98-2.81-.17-.82-.17-1.83m3.15-5.2q-2.25 0-3.75 1.55-1.39 1.43-1.39 3.56 0 2.95 2.16 4.43 1.31.89 2.91.89 2.25 0 3.72-1.59 1.36-1.46 1.36-3.64 0-2.95-2.18-4.38-1.29-.82-2.83-.82" transform="translate(-226.5 -469.27)"></path></g><rect width="10.15" height="10.43" x="-5.08" y="-5.21" fill="none" rx="0" ry="0" transform="translate(141.49 111.36)"></rect><g transform="translate(153.72 110.74)"><linearGradient id="L" x1="-3.28" x2="27.37" y1="0" y2="0" gradientUnits="objectBoundingBox"><stop offset="0%" stop-color="#0f3054"></stop><stop offset="49.8%" stop-color="#3b8dcb"></stop><stop offset="100%" stop-color="#0f3054"></stop></linearGradient><path fill="url(#L)" d="M237.79 473.67h-1.05v-5.06q.07-2.18 1.54-3.14.64-.4 1.29-.4 1.43 0 1.95 1.33.21.54.21 1.22v4.64q0 1.08-.61 1.29-.35.12-1.15.12v.58h5.28q0-.51-.36-.56-.09-.02-.23-.02h-1.17v-5.81q0-2.35-1.62-3.36-.75-.44-1.62-.44-1.73 0-2.86 1.38-.42.54-.68 1.2l-.09-2.35h-3.4v.59h1.76v7.38q0 1.08-.61 1.29-.35.12-1.15.12v.58h5.16q0-.51-.35-.56-.1-.02-.24-.02" transform="translate(-239.24 -469.15)"></path></g><rect width="12.03" height="10.19" x="-6.01" y="-5.09" fill="none" rx="0" ry="0" transform="translate(154.22 111.24)"></rect><g transform="translate(167.03 110.74)"><linearGradient id="M" x1="-4.28" x2="26.37" y1="0" y2="0" gradientUnits="objectBoundingBox"><stop offset="0%" stop-color="#0f3054"></stop><stop offset="49.8%" stop-color="#3b8dcb"></stop><stop offset="100%" stop-color="#0f3054"></stop></linearGradient><path fill="url(#M)" d="M251.1 473.67h-1.05v-5.06q.07-2.18 1.55-3.14.63-.4 1.29-.4 1.43 0 1.94 1.33.21.54.21 1.22v4.64q0 1.08-.61 1.29-.35.12-1.15.12v.58h5.28q0-.51-.35-.56-.1-.02-.24-.02h-1.17v-5.81q0-2.35-1.62-3.36-.75-.44-1.61-.44-1.74 0-2.86 1.38-.43.54-.68 1.2l-.1-2.35h-3.4v.59h1.76v7.38q0 1.08-.61 1.29-.35.12-1.15.12v.58h5.16q0-.51-.35-.56-.09-.02-.24-.02" transform="translate(-252.54 -469.15)"></path></g><rect width="12.03" height="10.19" x="-6.01" y="-5.09" fill="none" rx="0" ry="0" transform="translate(167.53 111.24)"></rect><g transform="translate(179.13 110.86)"><linearGradient id="N" x1="-6.47" x2="31.28" y1="0" y2="0" gradientUnits="objectBoundingBox"><stop offset="0%" stop-color="#0f3054"></stop><stop offset="49.8%" stop-color="#3b8dcb"></stop><stop offset="100%" stop-color="#0f3054"></stop></linearGradient><path fill="url(#N)" d="M264.98 464.65q1.64 0 2.18 1.38.19.44.19.96 0 1.17-1.13 1.43-.58.12-1.66.09l-2.49-.07q.12-2.69 1.76-3.51.54-.28 1.15-.28m4.08 7.35-.59-.21q-.82 1.78-2.65 2.02-.23.02-.44.02-2.46 0-3.1-2.93-.18-.82-.21-1.8l2.82.05q2.86.04 3.68-.54.63-.47.63-1.34 0-1.59-1.62-2.53-1.15-.68-2.65-.68-2.93 0-4.19 2.44-.66 1.26-.66 2.86 0 2.9 2.09 4.31 1.24.82 2.83.82 2.53 0 3.73-1.83.19-.33.33-.66" transform="translate(-264.64 -469.27)"></path></g><rect width="9.12" height="10.43" x="-4.56" y="-5.21" fill="none" rx="0" ry="0" transform="translate(179.63 111.36)"></rect><g transform="translate(190.01 110.86)"><linearGradient id="O" x1="-7.97" x2="32.37" y1="0" y2="0" gradientUnits="objectBoundingBox"><stop offset="0%" stop-color="#0f3054"></stop><stop offset="49.8%" stop-color="#3b8dcb"></stop><stop offset="100%" stop-color="#0f3054"></stop></linearGradient><path fill="url(#O)" d="M270.96 469.38q0 2.84 2.08 4.24 1.29.87 2.93.87 2.44 0 3.68-1.71.28-.4.45-.8l-.61-.21q-.87 1.85-2.86 2.04-.19.02-.38.02-1.66 0-2.6-1.66-.7-1.27-.7-3 0-3.07 1.62-4.1.68-.42 1.5-.42 1.26 0 1.52.98.05.19.12.59.14.93.51 1.17.24.11.52.14.79.04 1.01-.66.04-.16.04-.3 0-1.2-1.52-1.97-1.08-.54-2.35-.54-3.14 0-4.38 2.55-.58 1.22-.58 2.77" transform="translate(-275.53 -469.27)"></path></g><rect width="9.14" height="10.43" x="-4.57" y="-5.21" fill="none" rx="0" ry="0" transform="translate(190.51 111.36)"></rect><g transform="translate(198.68 109.62)"><linearGradient id="P" x1="-12" x2="42.32" y1="0" y2="0" gradientUnits="objectBoundingBox"><stop offset="0%" stop-color="#0f3054"></stop><stop offset="49.8%" stop-color="#3b8dcb"></stop><stop offset="100%" stop-color="#0f3054"></stop></linearGradient><path fill="url(#P)" d="M280.68 464.88h1.64v6.61q.17 2.93 2.7 3.02 2.15 0 2.69-2.65v-.04l-.63-.12q-.58 1.95-1.71 2.11-1.27-.05-1.29-1.81v-7.12h3.63v-.59h-3.63v-2.72l-1.76.5v2.22h-1.64Z" transform="translate(-284.2 -468.04)"></path></g><rect width="7.03" height="12.94" x="-3.52" y="-6.47" fill="none" rx="0" ry="0" transform="translate(199.18 110.12)"></rect><g transform="translate(205.71 108.5)"><linearGradient id="Q" x1="-14.57" x2="46.43" y1="0" y2="0" gradientUnits="objectBoundingBox"><stop offset="0%" stop-color="#0f3054"></stop><stop offset="49.8%" stop-color="#3b8dcb"></stop><stop offset="100%" stop-color="#0f3054"></stop></linearGradient><path fill="url(#Q)" d="M293.34 473.67h-1.17v-9.38h-3.64v.59h1.88v7.38q0 1.08-.73 1.31-.35.1-1.15.1v.58h5.39q0-.51-.35-.56-.11-.02-.23-.02m-.89-12.8q0-.82-.73-1.17-.28-.12-.54-.12-.82 0-1.17.75-.12.26-.12.54 0 .87.78 1.2.25.09.51.09.82 0 1.15-.75.12-.26.12-.54" transform="translate(-291.23 -466.92)"></path></g><rect width="5.39" height="14.67" x="-2.69" y="-7.33" fill="none" rx="0" ry="0" transform="translate(206.21 109)"></rect><g transform="translate(215.82 110.74)"><linearGradient id="R" x1="-7.95" x2="22.7" y1="0" y2="0" gradientUnits="objectBoundingBox"><stop offset="0%" stop-color="#0f3054"></stop><stop offset="49.8%" stop-color="#3b8dcb"></stop><stop offset="100%" stop-color="#0f3054"></stop></linearGradient><path fill="url(#R)" d="M299.9 473.67h-1.05v-5.06q.07-2.18 1.54-3.14.64-.4 1.29-.4 1.43 0 1.95 1.33.21.54.21 1.22v4.64q0 1.08-.61 1.29-.35.12-1.15.12v.58h5.27q0-.51-.35-.56-.09-.02-.23-.02h-1.17v-5.81q0-2.35-1.62-3.36-.75-.44-1.62-.44-1.73 0-2.86 1.38-.42.54-.68 1.2l-.09-2.35h-3.4v.59h1.76v7.38q0 1.08-.61 1.29-.35.12-1.15.12v.58h5.16q0-.51-.35-.56-.1-.02-.24-.02" transform="translate(-301.34 -469.15)"></path></g><rect width="12.02" height="10.19" x="-6.01" y="-5.09" fill="none" rx="0" ry="0" transform="translate(216.32 111.24)"></rect><g transform="translate(228.54 112.33)"><linearGradient id="S" x1="-10.57" x2="25.81" y1="0" y2="0" gradientUnits="objectBoundingBox"><stop offset="0%" stop-color="#0f3054"></stop><stop offset="49.8%" stop-color="#3b8dcb"></stop><stop offset="100%" stop-color="#0f3054"></stop></linearGradient><path fill="url(#S)" d="M310.99 467.76q.04-3.09 2.34-3.11 2.3.04 2.32 3.11-.05 3.19-2.32 3.21-2.32-.04-2.34-3.21m2.36-3.7q-2.1 0-3.35 1.36-.89 1.01-.89 2.37 0 1.78 1.74 2.95.16.12.32.21-1.5 0-1.87 1.29-.07.3-.07.61.02 1.24 1.01 1.85-.78.82-.78 1.66 0 1.29 1.53 1.93.96.42 2.36.42 3.57 0 4.72-1.74.37-.58.37-1.24 0-2.01-2.32-2.32-.3-.05-.63-.05l-4.27-.09q-1.08-.07-1.1-.94 0-.61.77-.77.17-.02.36-.02l2.06.02q2.08 0 3.33-1.41.89-1 .89-2.39-.03-1.76-1.36-2.81.21-.75.79-.89.1-.02.19-.02.33 0 .7.35.26.23.47.23.59-.14.68-.75 0-.72-.68-.98-.25-.1-.51-.1-1.1 0-1.78.99-.26.37-.4.82-1.06-.54-2.28-.54m0 14.04q-2.32 0-2.93-1.22-.16-.33-.16-.66.02-.63.56-1.26.47.09.78.09l3.61.05q1.75.02 2.04.8.07.18.07.46 0 1.04-1.93 1.5-.93.24-2.04.24" transform="translate(-314.06 -470.75)"></path></g><rect width="9.89" height="15.92" x="-4.95" y="-7.96" fill="none" rx="0" ry="0" transform="translate(229.04 112.83)"></rect><g transform="translate(246.68 108.8)"><linearGradient id="T" x1="-8.02" x2="16.02" y1="0" y2="0" gradientUnits="objectBoundingBox"><stop offset="0%" stop-color="#0f3054"></stop><stop offset="49.8%" stop-color="#3b8dcb"></stop><stop offset="100%" stop-color="#0f3054"></stop></linearGradient><path fill="url(#T)" d="M330.46 474.25q0-.51-.37-.58-.12-.02-.24-.02h-1.24v-6.31h7.2v6.31h-1.88v.6h5.74q0-.51-.37-.58-.12-.02-.23-.02h-1.25V460.8h1.85v-.61h-5.74v.61h1.88v5.86h-7.2v-5.86h1.85v-.61h-5.74v.61h1.88v12.85h-1.88v.6Z" transform="translate(-332.2 -467.22)"></path></g><rect width="14.95" height="14.06" x="-7.47" y="-7.03" fill="none" rx="0" ry="0" transform="translate(247.18 109.3)"></rect><g transform="translate(261.66 110.97)"><linearGradient id="U" x1="-11.42" x2="19.29" y1="0" y2="0" gradientUnits="objectBoundingBox"><stop offset="0%" stop-color="#0f3054"></stop><stop offset="49.8%" stop-color="#3b8dcb"></stop><stop offset="100%" stop-color="#0f3054"></stop></linearGradient><path fill="url(#U)" d="M352.68 473.67h-1.17v-9.38h-3.68v.59h1.92v5.06q0 2.11-1.47 3.1-.66.44-1.36.44-1.92 0-2.23-1.97-.05-.33-.05-.7v-6.52h-3.56v.59h1.81v5.58q.02 4.01 3.35 4.03 1.76 0 2.88-1.43.42-.54.68-1.2l.16 2.39h3.31q0-.51-.35-.56-.1-.02-.24-.02" transform="translate(-347.18 -469.39)"></path></g><rect width="12.19" height="10.2" x="-6.09" y="-5.1" fill="none" rx="0" ry="0" transform="translate(262.16 111.47)"></rect><g transform="translate(278 110.74)"><linearGradient id="V" x1="-8.63" x2="12.4" y1="0" y2="0" gradientUnits="objectBoundingBox"><stop offset="0%" stop-color="#0f3054"></stop><stop offset="49.8%" stop-color="#3b8dcb"></stop><stop offset="100%" stop-color="#0f3054"></stop></linearGradient><path fill="url(#V)" d="M359.17 473.67h-1.05v-5.06q.07-2.07 1.43-3.07.63-.47 1.27-.47 1.17 0 1.61 1.29.19.56.19 1.26v4.64q0 1.08-.52 1.29-.32.12-1.12.12v.58h5.04q0-.51-.35-.56-.1-.02-.24-.02h-1.05v-6q.37-1.71 1.66-2.39.49-.24.94-.24 1.19 0 1.69 1.25.23.58.23 1.33v4.64q0 1.08-.51 1.29-.33.12-1.13.12v.58h5.18q0-.51-.35-.56-.09-.02-.24-.02h-1.19v-5.81q0-2.42-1.57-3.38-.7-.42-1.52-.42-1.79 0-2.86 1.66-.29.43-.47.89-.42-1.85-1.85-2.39-.43-.16-.87-.16-1.69 0-2.79 1.43-.4.51-.63 1.15l-.1-2.35h-3.4v.59h1.76v7.38q0 1.08-.61 1.29-.35.12-1.15.12v.58h5.16q0-.49-.35-.56-.12-.02-.24-.02" transform="translate(-363.52 -469.15)"></path></g><rect width="17.84" height="10.19" x="-8.92" y="-5.09" fill="none" rx="0" ry="0" transform="translate(278.5 111.24)"></rect><g transform="translate(293.51 110.86)"><linearGradient id="W" x1="-16.31" x2="20" y1="0" y2="0" gradientUnits="objectBoundingBox"><stop offset="0%" stop-color="#0f3054"></stop><stop offset="49.8%" stop-color="#3b8dcb"></stop><stop offset="100%" stop-color="#0f3054"></stop></linearGradient><path fill="url(#W)" d="M382.19 474.49q1.81 0 1.99-2.18.03-.14.03-.26l-.61-.02q-.17 1.71-.92 1.73-.61-.04-.63-1.22v-4.94q0-3.35-3.35-3.54h-.42q-2.63 0-3.52 1.22-.28.4-.28.79 0 .73.68.85.12.02.23.02.54 0 .8-.68.33-.86.45-1.03.44-.58 1.38-.58 2.2.14 2.27 2.41v1.48q-5.51 0-6.3 2.29-.14.45-.14.96 0 1.78 1.57 2.44.63.26 1.33.26 1.71 0 2.89-1.17.42-.45.63-.94.28 2.09 1.92 2.11m-4.66-.94q-1.43 0-1.76-1.43-.07-.33-.07-.72 0-1.58 1.8-2 .96-.21 2.79-.23v1.87q-.35 1.62-1.71 2.28-.54.23-1.05.23" transform="translate(-379.03 -469.27)"></path></g><rect width="10.36" height="10.43" x="-5.18" y="-5.21" fill="none" rx="0" ry="0" transform="translate(294.01 111.36)"></rect><g transform="translate(305.52 110.74)"><linearGradient id="X" x1="-14.69" x2="15.97" y1="0" y2="0" gradientUnits="objectBoundingBox"><stop offset="0%" stop-color="#0f3054"></stop><stop offset="49.8%" stop-color="#3b8dcb"></stop><stop offset="100%" stop-color="#0f3054"></stop></linearGradient><path fill="url(#X)" d="M389.6 473.67h-1.06v-5.06q.07-2.18 1.55-3.14.63-.4 1.29-.4 1.43 0 1.94 1.33.21.54.21 1.22v4.64q0 1.08-.61 1.29-.35.12-1.14.12v.58h5.27q0-.51-.35-.56-.1-.02-.24-.02h-1.17v-5.81q0-2.35-1.62-3.36-.75-.44-1.61-.44-1.74 0-2.86 1.38-.42.54-.68 1.2l-.1-2.35h-3.39v.59h1.75v7.38q0 1.08-.61 1.29-.35.12-1.14.12v.58h5.15q0-.51-.35-.56-.09-.02-.23-.02" transform="translate(-391.04 -469.15)"></path></g><rect width="12.02" height="10.19" x="-6.01" y="-5.09" fill="none" rx="0" ry="0" transform="translate(306.02 111.24)"></rect><g transform="translate(315.52 108.5)"><linearGradient id="Y" x1="-30.73" x2="30.27" y1="0" y2="0" gradientUnits="objectBoundingBox"><stop offset="0%" stop-color="#0f3054"></stop><stop offset="49.8%" stop-color="#3b8dcb"></stop><stop offset="100%" stop-color="#0f3054"></stop></linearGradient><path fill="url(#Y)" d="M403.14 473.67h-1.17v-9.38h-3.63v.59h1.87v7.38q0 1.08-.72 1.31-.35.1-1.15.1v.58h5.39q0-.51-.35-.56-.12-.02-.24-.02m-.89-12.8q0-.82-.72-1.17-.28-.12-.54-.12-.82 0-1.17.75-.12.26-.12.54 0 .87.77 1.2.26.09.52.09.82 0 1.15-.75.11-.26.11-.54" transform="translate(-401.04 -466.92)"></path></g><rect width="5.39" height="14.67" x="-2.69" y="-7.33" fill="none" rx="0" ry="0" transform="translate(316.02 109)"></rect><g transform="translate(322.9 109.62)"><linearGradient id="Z" x1="-28.31" x2="26.01" y1="0" y2="0" gradientUnits="objectBoundingBox"><stop offset="0%" stop-color="#0f3054"></stop><stop offset="49.8%" stop-color="#3b8dcb"></stop><stop offset="100%" stop-color="#0f3054"></stop></linearGradient><path fill="url(#Z)" d="M404.9 464.88h1.64v6.61q.17 2.93 2.7 3.02 2.15 0 2.69-2.65v-.04l-.63-.12q-.59 1.95-1.71 2.11-1.27-.05-1.29-1.81v-7.12h3.63v-.59h-3.63v-2.72l-1.76.5v2.22h-1.64Z" transform="translate(-408.42 -468.04)"></path></g><rect width="7.03" height="12.94" x="-3.52" y="-6.47" fill="none" rx="0" ry="0" transform="translate(323.4 110.12)"></rect><g transform="translate(332.14 113.08)"><linearGradient id="aa" x1="-19.68" x2="16.47" y1="0" y2="0" gradientUnits="objectBoundingBox"><stop offset="0%" stop-color="#0f3054"></stop><stop offset="49.8%" stop-color="#3b8dcb"></stop><stop offset="100%" stop-color="#0f3054"></stop></linearGradient><path fill="url(#aa)" d="M414.46 477.98q-.37 0-.56-.56-.26-.7-.49-.87-.21-.14-.49-.14-.75 0-.87.66-.02.09-.02.16 0 .89 1.03 1.29.47.19.98.19 1.85 0 3.21-2.28.57-.91 1.08-2.18l3.47-8.55q.23-.66.52-.75.16-.05.37-.05.47 0 .54-.25.05-.15.05-.36h-3.57v.61h1.71l-3 7.5-3.21-7.5h1.57v-.61h-4.57v.61h1.15l4.22 9.35q-1.31 3.1-2.46 3.59-.33.14-.66.14" transform="translate(-417.65 -471.5)"></path></g><rect width="11.25" height="14.42" x="-5.63" y="-7.21" fill="none" rx="0" ry="0" transform="translate(332.64 113.58)"></rect><g transform="translate(340.26 115.77)"><linearGradient id="ab" x1="-51.86" x2="40.3" y1="0" y2="0" gradientUnits="objectBoundingBox"><stop offset="0%" stop-color="#0f3054"></stop><stop offset="49.8%" stop-color="#3b8dcb"></stop><stop offset="100%" stop-color="#0f3054"></stop></linearGradient><path fill="url(#ab)" d="M426.98 473.39q0-1.27-.94-1.5-.19-.05-.35-.05-.75 0-1.03.7-.09.24-.09.47 0 .75.75 1.03l.18.05q.52.14.54.4-.02.63-1.03 1.69l.49.35q1.43-1.55 1.48-3.14" transform="translate(-425.77 -474.19)"></path></g><rect width="2.41" height="4.69" x="-1.21" y="-2.35" fill="none" rx="0" ry="0" transform="translate(340.76 116.27)"></rect><g transform="translate(350.78 108.8)"><linearGradient id="ac" x1="-31.99" x2="22.33" y1="0" y2="0" gradientUnits="objectBoundingBox"><stop offset="0%" stop-color="#0f3054"></stop><stop offset="49.8%" stop-color="#3b8dcb"></stop><stop offset="100%" stop-color="#0f3054"></stop></linearGradient><path fill="url(#ac)" d="M439.17 474.25q0-.51-.38-.58-.12-.02-.23-.02h-1.24V460.8h1.85v-.61h-5.75v.61h1.88v12.85h-1.88v.6Z" transform="translate(-436.3 -467.22)"></path></g><rect width="5.75" height="14.06" x="-2.88" y="-7.03" fill="none" rx="0" ry="0" transform="translate(351.28 109.3)"></rect><g transform="translate(361.3 110.74)"><linearGradient id="ad" x1="-18.88" x2="11.78" y1="0" y2="0" gradientUnits="objectBoundingBox"><stop offset="0%" stop-color="#0f3054"></stop><stop offset="49.8%" stop-color="#3b8dcb"></stop><stop offset="100%" stop-color="#0f3054"></stop></linearGradient><path fill="url(#ad)" d="M445.38 473.67h-1.06v-5.06q.07-2.18 1.55-3.14.63-.4 1.29-.4 1.43 0 1.94 1.33.22.54.22 1.22v4.64q0 1.08-.61 1.29-.36.12-1.15.12v.58h5.27q0-.51-.35-.56-.09-.02-.23-.02h-1.18v-5.81q0-2.35-1.61-3.36-.75-.44-1.62-.44-1.74 0-2.86 1.38-.42.54-.68 1.2l-.09-2.35h-3.4v.59h1.76v7.38q0 1.08-.61 1.29-.36.12-1.15.12v.58h5.15q0-.51-.35-.56-.09-.02-.23-.02" transform="translate(-446.82 -469.15)"></path></g><rect width="12.02" height="10.19" x="-6.01" y="-5.09" fill="none" rx="0" ry="0" transform="translate(361.8 111.24)"></rect><g transform="translate(372.7 110.79)"><linearGradient id="ae" x1="-28.23" x2="15.72" y1="0" y2="0" gradientUnits="objectBoundingBox"><stop offset="0%" stop-color="#0f3054"></stop><stop offset="49.8%" stop-color="#3b8dcb"></stop><stop offset="100%" stop-color="#0f3054"></stop></linearGradient><path fill="url(#ae)" d="M457.87 473.86q1.62 0 2.18-.99.21-.35.21-.77 0-.99-1.43-1.69-.3-.16-1.01-.47-1.92-.79-2.55-1.5-.68-.77-.68-1.8 0-1.62 1.78-2.28.82-.3 1.78-.3 1.55 0 2.67.66 0-.68.33-.78.14-.02.31-.02v2.93h-.61q-.05-2.16-2.39-2.18-1.76 0-2.18 1.03-.12.28-.12.59 0 1 1.45 1.71.33.16 1.03.44 1.9.78 2.53 1.48.68.75.68 1.78 0 1.9-2.01 2.53-.77.26-1.69.26-1.69-.02-2.93-.84 0 .6-.3.7-.14.02-.33.02v-3.56h.66q.04 3.02 2.62 3.05" transform="translate(-458.22 -469.2)"></path></g><rect width="7.26" height="10.57" x="-3.63" y="-5.29" fill="none" rx="0" ry="0" transform="translate(373.2 111.29)"></rect><g transform="translate(383.56 112.97)"><linearGradient id="af" x1="-21.25" x2="10.44" y1="0" y2="0" gradientUnits="objectBoundingBox"><stop offset="0%" stop-color="#0f3054"></stop><stop offset="49.8%" stop-color="#3b8dcb"></stop><stop offset="100%" stop-color="#0f3054"></stop></linearGradient><path fill="url(#af)" d="M466.92 478.12v-4.85q1.29 1.13 2.97 1.22 2.09 0 3.5-1.57 1.36-1.52 1.36-3.87 0-2.67-1.48-4.05-1.03-.94-2.51-.94-2.27 0-3.4 1.8-.28.47-.47.99l-.11-2.56h-3.38v.59h1.76v11.84q0 1.07-.61 1.28-.35.12-1.15.12v.59h5.74q0-.52-.35-.56-.09-.03-.23-.03Zm3.09-13.12q2.04 0 2.58 2.55.16.77.16 1.74 0 3.44-1.85 4.36-.54.25-1.17.25-1.81 0-2.48-1.9-.36-.96-.36-2.27 0-3.05 1.57-4.22.71-.51 1.55-.51" transform="translate(-469.07 -471.38)"></path></g><rect width="11.35" height="14.65" x="-5.67" y="-7.33" fill="none" rx="0" ry="0" transform="translate(384.06 113.47)"></rect><g transform="translate(393.57 108.5)"><linearGradient id="ag" x1="-42.21" x2="18.79" y1="0" y2="0" gradientUnits="objectBoundingBox"><stop offset="0%" stop-color="#0f3054"></stop><stop offset="49.8%" stop-color="#3b8dcb"></stop><stop offset="100%" stop-color="#0f3054"></stop></linearGradient><path fill="url(#ag)" d="M481.19 473.67h-1.17v-9.38h-3.63v.59h1.87v7.38q0 1.08-.73 1.31-.35.1-1.14.1v.58h5.39q0-.51-.36-.56-.11-.02-.23-.02m-.89-12.8q0-.82-.73-1.17-.28-.12-.54-.12-.82 0-1.17.75-.11.26-.11.54 0 .87.77 1.2.26.09.51.09.82 0 1.15-.75.12-.26.12-.54" transform="translate(-479.08 -466.92)"></path></g><rect width="5.39" height="14.67" x="-2.69" y="-7.33" fill="none" rx="0" ry="0" transform="translate(394.07 109)"></rect><g transform="translate(401.88 110.78)"><linearGradient id="ah" x1="-31.88" x2="12.87" y1="0" y2="0" gradientUnits="objectBoundingBox"><stop offset="0%" stop-color="#0f3054"></stop><stop offset="49.8%" stop-color="#3b8dcb"></stop><stop offset="100%" stop-color="#0f3054"></stop></linearGradient><path fill="url(#ah)" d="M488.43 473.67h-1.68V469q0-2.13 1.31-3.42.51-.49.86-.51.4 0 .73.58.38.66.7.75.15.05.29.05.7 0 .89-.68.04-.14.04-.28 0-1.06-1.07-1.29-.24-.05-.45-.05-1.41 0-2.51 1.2-.51.56-.82 1.26l-.09-2.32h-3.4v.59h1.76v7.38q0 1.08-.61 1.29-.35.12-1.15.12v.58h5.79q0-.51-.35-.56-.1-.02-.24-.02" transform="translate(-487.4 -469.2)"></path></g><rect width="8.34" height="10.1" x="-4.17" y="-5.05" fill="none" rx="0" ry="0" transform="translate(402.38 111.28)"></rect><g transform="translate(409.57 108.5)"><linearGradient id="ai" x1="-44.56" x2="16.44" y1="0" y2="0" gradientUnits="objectBoundingBox"><stop offset="0%" stop-color="#0f3054"></stop><stop offset="49.8%" stop-color="#3b8dcb"></stop><stop offset="100%" stop-color="#0f3054"></stop></linearGradient><path fill="url(#ai)" d="M497.2 473.67h-1.17v-9.38h-3.64v.59h1.88v7.38q0 1.08-.73 1.31-.35.1-1.15.1v.58h5.39q0-.51-.35-.56-.11-.02-.23-.02m-.89-12.8q0-.82-.73-1.17-.28-.12-.54-.12-.82 0-1.17.75-.12.26-.12.54 0 .87.78 1.2.25.09.51.09.82 0 1.15-.75.12-.26.12-.54" transform="translate(-495.08 -466.92)"></path></g><rect width="5.39" height="14.67" x="-2.69" y="-7.33" fill="none" rx="0" ry="0" transform="translate(410.07 109)"></rect><g transform="translate(419.69 110.74)"><linearGradient id="aj" x1="-23.26" x2="7.39" y1="0" y2="0" gradientUnits="objectBoundingBox"><stop offset="0%" stop-color="#0f3054"></stop><stop offset="49.8%" stop-color="#3b8dcb"></stop><stop offset="100%" stop-color="#0f3054"></stop></linearGradient><path fill="url(#aj)" d="M503.76 473.67h-1.05v-5.06q.07-2.18 1.54-3.14.64-.4 1.29-.4 1.43 0 1.95 1.33.21.54.21 1.22v4.64q0 1.08-.61 1.29-.35.12-1.15.12v.58h5.27q0-.51-.35-.56-.09-.02-.23-.02h-1.17v-5.81q0-2.35-1.62-3.36-.75-.44-1.62-.44-1.73 0-2.86 1.38-.42.54-.68 1.2l-.09-2.35h-3.4v.59h1.76v7.38q0 1.08-.61 1.29-.35.12-1.15.12v.58h5.16q0-.51-.35-.56-.1-.02-.24-.02" transform="translate(-505.2 -469.15)"></path></g><rect width="12.02" height="10.19" x="-6.01" y="-5.09" fill="none" rx="0" ry="0" transform="translate(420.19 111.24)"></rect><g transform="translate(432.4 112.33)"><linearGradient id="ak" x1="-28.65" x2="7.73" y1="0" y2="0" gradientUnits="objectBoundingBox"><stop offset="0%" stop-color="#0f3054"></stop><stop offset="49.8%" stop-color="#3b8dcb"></stop><stop offset="100%" stop-color="#0f3054"></stop></linearGradient><path fill="url(#ak)" d="M514.85 467.76q.04-3.09 2.34-3.11 2.3.04 2.32 3.11-.05 3.19-2.32 3.21-2.32-.04-2.34-3.21m2.36-3.7q-2.11 0-3.35 1.36-.89 1.01-.89 2.37 0 1.78 1.74 2.95.16.12.32.21-1.5 0-1.87 1.29-.07.3-.07.61.02 1.24 1.01 1.85-.78.82-.78 1.66 0 1.29 1.53 1.93.96.42 2.36.42 3.57 0 4.71-1.74.38-.58.38-1.24 0-2.01-2.32-2.32-.31-.05-.63-.05l-4.27-.09q-1.08-.07-1.1-.94 0-.61.77-.77.17-.02.35-.02l2.07.02q2.08 0 3.33-1.41.89-1 .89-2.39-.03-1.76-1.36-2.81.21-.75.79-.89.1-.02.19-.02.33 0 .7.35.26.23.47.23.59-.14.68-.75 0-.72-.68-.98-.26-.1-.51-.1-1.1 0-1.78.99-.26.37-.4.82-1.06-.54-2.28-.54m0 14.04q-2.32 0-2.93-1.22-.16-.33-.16-.66.02-.63.56-1.26.47.09.78.09l3.61.05q1.75.02 2.03.8.07.18.07.46 0 1.04-1.92 1.5-.93.24-2.04.24" transform="translate(-517.91 -470.75)"></path></g><rect width="9.89" height="15.92" x="-4.95" y="-7.96" fill="none" rx="0" ry="0" transform="translate(432.9 112.83)"></rect><g transform="translate(448.83 108.8)"><linearGradient id="al" x1="-25.73" x2="5.27" y1="0" y2="0" gradientUnits="objectBoundingBox"><stop offset="0%" stop-color="#0f3054"></stop><stop offset="49.8%" stop-color="#3b8dcb"></stop><stop offset="100%" stop-color="#0f3054"></stop></linearGradient><path fill="url(#al)" d="M535.03 460.8q2.08 0 2.69 1.88.19.61.19 1.31 0 3.05-2.72 3.35-.28.02-.56.02h-2.16v-6.56Zm-.21 13.45q0-.51-.38-.58-.12-.02-.23-.02h-1.74v-5.61h2.06q3.85 0 5.09-2.18.49-.82.49-1.89 0-2.32-2.01-3.26-1.08-.52-2.58-.52h-6.94v.61h1.88v12.85h-1.88v.6Z" transform="translate(-534.35 -467.22)"></path></g><rect width="11.53" height="14.06" x="-5.76" y="-7.03" fill="none" rx="0" ry="0" transform="translate(449.33 109.3)"></rect><g transform="translate(460.8 110.86)"><linearGradient id="am" x1="-32.37" x2="5.38" y1="0" y2="0" gradientUnits="objectBoundingBox"><stop offset="0%" stop-color="#0f3054"></stop><stop offset="49.8%" stop-color="#3b8dcb"></stop><stop offset="100%" stop-color="#0f3054"></stop></linearGradient><path fill="url(#am)" d="M546.65 464.65q1.64 0 2.18 1.38.19.44.19.96 0 1.17-1.13 1.43-.58.12-1.66.09l-2.48-.07q.11-2.69 1.75-3.51.54-.28 1.15-.28m4.08 7.35-.59-.21q-.82 1.78-2.64 2.02-.24.02-.45.02-2.46 0-3.09-2.93-.19-.82-.21-1.8l2.81.05q2.86.04 3.68-.54.63-.47.63-1.34 0-1.59-1.62-2.53-1.15-.68-2.65-.68-2.93 0-4.19 2.44-.66 1.26-.66 2.86 0 2.9 2.09 4.31 1.24.82 2.83.82 2.54 0 3.73-1.83.19-.33.33-.66" transform="translate(-546.31 -469.27)"></path></g><rect width="9.12" height="10.43" x="-4.56" y="-5.21" fill="none" rx="0" ry="0" transform="translate(461.3 111.36)"></rect><g transform="translate(472.19 110.86)"><linearGradient id="an" x1="-30.18" x2="3.87" y1="0" y2="0" gradientUnits="objectBoundingBox"><stop offset="0%" stop-color="#0f3054"></stop><stop offset="49.8%" stop-color="#3b8dcb"></stop><stop offset="100%" stop-color="#0f3054"></stop></linearGradient><path fill="url(#an)" d="M554.62 469.26q0-3.63 1.99-4.43.52-.18 1.08-.18 2.6 0 3.02 3.28.07.56.07 1.24 0 3.94-2.15 4.62-.42.11-.87.11-2.37 0-2.98-2.81-.16-.82-.16-1.83m3.14-5.2q-2.25 0-3.75 1.55-1.38 1.43-1.38 3.56 0 2.95 2.15 4.43 1.32.89 2.91.89 2.25 0 3.73-1.59 1.36-1.46 1.36-3.64 0-2.95-2.18-4.38-1.29-.82-2.84-.82" transform="translate(-557.7 -469.27)"></path></g><rect width="10.15" height="10.43" x="-5.08" y="-5.21" fill="none" rx="0" ry="0" transform="translate(472.69 111.36)"></rect><g transform="translate(484.48 112.97)"><linearGradient id="ao" x1="-29.08" x2="2.61" y1="0" y2="0" gradientUnits="objectBoundingBox"><stop offset="0%" stop-color="#0f3054"></stop><stop offset="49.8%" stop-color="#3b8dcb"></stop><stop offset="100%" stop-color="#0f3054"></stop></linearGradient><path fill="url(#ao)" d="M567.84 478.12v-4.85q1.29 1.13 2.98 1.22 2.08 0 3.49-1.57 1.36-1.52 1.36-3.87 0-2.67-1.48-4.05-1.03-.94-2.51-.94-2.27 0-3.4 1.8-.28.47-.46.99l-.12-2.56h-3.38v.59h1.76v11.84q0 1.07-.61 1.28-.35.12-1.15.12v.59h5.75q0-.52-.36-.56-.09-.03-.23-.03Zm3.09-13.12q2.04 0 2.58 2.55.16.77.16 1.74 0 3.44-1.85 4.36-.54.25-1.17.25-1.8 0-2.48-1.9-.35-.96-.35-2.27 0-3.05 1.57-4.22.7-.51 1.54-.51" transform="translate(-570 -471.38)"></path></g><rect width="11.35" height="14.65" x="-5.67" y="-7.33" fill="none" rx="0" ry="0" transform="translate(484.98 113.47)"></rect><g transform="translate(494.55 108.22)"><linearGradient id="ap" x1="-57.25" x2="3.96" y1="0" y2="0" gradientUnits="objectBoundingBox"><stop offset="0%" stop-color="#0f3054"></stop><stop offset="49.8%" stop-color="#3b8dcb"></stop><stop offset="100%" stop-color="#0f3054"></stop></linearGradient><path fill="url(#ap)" d="M582.16 473.67h-1.27v-14.65h-3.51v.59h1.76v12.65q0 1.08-.61 1.29-.36.12-1.15.12v.58h5.37q0-.51-.36-.56-.09-.02-.23-.02" transform="translate(-580.07 -466.63)"></path></g><rect width="5.37" height="15.23" x="-2.69" y="-7.62" fill="none" rx="0" ry="0" transform="translate(495.05 108.72)"></rect><g transform="translate(503.36 110.86)"><linearGradient id="aq" x1="-36.28" x2="1.47" y1="0" y2="0" gradientUnits="objectBoundingBox"><stop offset="0%" stop-color="#0f3054"></stop><stop offset="49.8%" stop-color="#3b8dcb"></stop><stop offset="100%" stop-color="#0f3054"></stop></linearGradient><path fill="url(#aq)" d="M589.21 464.65q1.64 0 2.18 1.38.19.44.19.96 0 1.17-1.12 1.43-.59.12-1.67.09l-2.48-.07q.11-2.69 1.76-3.51.53-.28 1.14-.28m4.08 7.35-.58-.21q-.82 1.78-2.65 2.02-.24.02-.45.02-2.46 0-3.09-2.93-.19-.82-.21-1.8l2.81.05q2.86.04 3.68-.54.63-.47.63-1.34 0-1.59-1.61-2.53-1.15-.68-2.65-.68-2.93 0-4.2 2.44-.65 1.26-.65 2.86 0 2.9 2.08 4.31 1.24.82 2.84.82 2.53 0 3.72-1.83.19-.33.33-.66" transform="translate(-588.88 -469.27)"></path></g><rect width="9.11" height="10.43" x="-4.55" y="-5.21" fill="none" rx="0" ry="0" transform="translate(503.86 111.36)"></rect><path stroke="#0f3054" stroke-dasharray="3 3" d="m124.113 123.859 384.744 1.998"></path></svg></svg>